<?xml version="1.0" encoding="UTF-8"?>
<svg id="_圖層_2" data-name="圖層 2" xmlns="http://www.w3.org/2000/svg" viewBox="0 0 143.12 144.04">
  <g id="_圖層_2-2" data-name="圖層 2">
    <g>
      <path d="M135.77,110.45c-30.37,44.79-98.05,44.79-128.43,0C2.8,103.37,.12,91.73,0,85.97v-28.28c-.11-5.78,4.86-10.75,11.07-11.07h120.98c6.2,.31,11.18,5.29,11.07,11.07v28.28c-.12,5.76-2.8,17.4-7.34,24.48Z" style="fill: #dcdddd;"/>
      <ellipse cx="71.83" cy="55.43" rx="69.66" ry="51.45" style="fill: #fff;"/>
      <ellipse cx="71.83" cy="50.65" rx="68.57" ry="50.65" style="fill: #eb624f;"/>
      <g>
        <g>
          <path d="M22.39,57.37c9.23,12.77,25.26,21.37,41.04,21.69,5.12,.1,10.43-.56,15.15-2.64v-.03c-15.13,6.66-33.95,.71-46.3-9.01-3.69-2.9-7.12-6.24-9.87-10.04v.03h-.01Z" style="fill: #fff;"/>
          <path d="M52.51,36.19c-14.18-4.36-45.55-.09-30.13,21.18v-.03c-15.42-21.27,15.96-25.54,30.14-21.18v.03h-.01Z" style="fill: #fff;"/>
          <polygon points="52.36 44.16 52.51 36.19 52.52 36.16 52.37 44.13 52.36 44.16 52.36 44.16" style="fill: #fff;"/>
          <path d="M39.62,43.28c4.24-1.03,8.61-.32,12.74,.88v-.03c-4.12-1.2-8.48-1.9-12.72-.88v.03h-.01Z" style="fill: #fff;"/>
          <path d="M70.69,66.67c-5.13,6.43-17.97,2.19-23.59-1.22-5.6-3.39-22.31-19.1-7.48-22.17v-.03c-14.82,3.06,1.89,18.78,7.49,22.17,5.62,3.41,18.47,7.66,23.59,1.22v.03h-.01Z" style="fill: #fff;"/>
          <polygon points="63.93 59.98 70.69 66.67 70.7 66.65 63.94 59.95 63.93 59.98 63.93 59.98" style="fill: #fff;"/>
          <polygon points="55.76 62.01 63.93 59.98 63.94 59.95 55.78 61.99 55.76 62.01 55.76 62.01" style="fill: #fff;"/>
          <polygon points="47.54 53.87 55.76 62.01 55.78 61.99 47.55 53.84 47.54 53.87 47.54 53.87" style="fill: #fff;"/>
          <polygon points="66.69 49.1 47.54 53.87 47.55 53.84 66.7 49.07 66.69 49.1 66.69 49.1" style="fill: #fff;"/>
          <path d="M86.22,68.85c.02-.13,.05-.26,.09-.38-.94,3.79-4.29,6.42-7.73,7.92v.03c3.34-1.47,6.55-3.96,7.64-7.58h0Z" style="fill: #fff;"/>
          <polygon points="86.31 68.5 66.69 49.1 66.7 49.07 86.32 68.47 86.31 68.5 86.31 68.5" style="fill: #fff;"/>
          <path d="M86.32,68.47l-19.62-19.41-19.15,4.77,8.23,8.15,8.16-2.04,6.77,6.7c-12.33,15.47-48.58-17.11-31.75-23.2,4.22-1.53,9.26-.52,13.42,.69l.15-7.97c-17.3-5.32-46.32,2.31-27.96,23.92,9.34,10.99,23.66,18.4,38.14,18.93,7.92,.29,21.3-1.25,23.61-10.54h0Z" style="fill: #fff;"/>
          <path d="M66.69,49.1l19.62,19.41c-3.81,15.34-30.59,10.94-40.91,6.65-10.31-4.28-35.41-21.25-24.7-34.82,6.95-8.81,22.64-6.98,31.82-4.15l-.15,7.97c-7.48-2.17-23.32-2.01-17.12,9.95,4.1,7.91,14.56,14.5,23.29,15.44,3.79,.41,9.57,.38,12.17-2.87l-6.77-6.7-8.16,2.04-8.23-8.15c6.38-1.59,12.76-3.18,19.15-4.77Z" style="fill: #fff;"/>
        </g>
        <path d="M123.98,35.74c-7.9-8.01-18.02-14.24-29.17-16.34-9.73-1.83-31.1-.47-27.34,14.32,2.58,10.16,14.54,18.98,23.26,23.67,9.14,4.92,20.24,7.77,30.55,5.3,16.43-3.93,11.97-17.6,2.7-26.96Zm-8.91,17.52c-4.73,3.3-12.82-.25-17.1-2.73-4.99-2.89-10.45-7.28-13.48-12.29-4.83-7.99,1.52-11.59,9.37-10.16,6.48,1.19,12.34,5.5,16.93,10.02,3.7,3.61,10.34,10.92,4.27,15.15Z" style="fill: #fff;"/>
      </g>
    </g>
  </g>
</svg>