<?xml version="1.0" encoding="UTF-8"?>
<svg id="_圖層_2" data-name="圖層 2" xmlns="http://www.w3.org/2000/svg" viewBox="0 0 1000 275.47">
  <g id="_圖層_1-2" data-name="圖層 1">
    <g>
      <path d="M0,0V179.13H1000V0H0Z" style="fill: #56abca;"/>
      <text transform="translate(24.46 84.24)" style="fill: #fff; font-family: GenSenRoundedTW-B, &apos;GenSenRounded TW&apos;; font-size: 44.54px;"><tspan x="0" y="0">指定超商取貨</tspan></text>
      <text transform="translate(76.83 138.13)" style="fill: #fff; font-family: GenSenRoundedTW-R, &apos;GenSenRounded TW&apos;; font-size: 19.79px;"><tspan x="0" y="0">(活動詳情請見官網)</tspan></text>
      <text transform="translate(358.05 138.13)" style="fill: #f3de5f; font-family: NotoSansCJKtc-Bold-B5pc-H, &apos;Noto Sans CJK TC&apos;; font-size: 131.3px; font-weight: 700;"><tspan x="0" y="0">999免運</tspan></text>
      <text transform="translate(307.7 84.24)" style="fill: #fff; font-family: GenSenRoundedTW-B, &apos;GenSenRounded TW&apos;; font-size: 44.54px;"><tspan x="0" y="0">滿</tspan></text>
      <text transform="translate(316.56 138.13)" style="fill: #fff; font-family: NotoSansCJKtc-Bold-B5pc-H, &apos;Noto Sans CJK TC&apos;; font-size: 47.59px; font-weight: 700;"><tspan x="0" y="0">$</tspan></text>
      <line x1="30.91" y1="106.9" x2="289.06" y2="106.9" style="fill: none; stroke: #fff; stroke-linecap: round; stroke-linejoin: round;"/>
      <path d="M932.61,53.11c5.02,0,9.09,4.07,9.09,9.09v9.09h9.6c3.22,0,6.14,1.27,8.58,3.54l14.64,14.64c2.27,2.27,3.54,5.36,3.54,8.58v21.72c3.35,0,6.06,2.71,6.06,6.06s-2.71,6.06-6.06,6.06h-6.06c0,10.04-8.14,18.18-18.18,18.18s-18.18-8.14-18.18-18.18h-24.24c0,10.04-8.14,18.18-18.18,18.18s-18.18-8.14-18.18-18.18h-3.03c-5.02,0-9.09-4.07-9.09-9.09V62.2c0-5.02,4.07-9.09,9.09-9.09h60.61Zm9.09,30.3v18.18h24.24v-3.54l-14.64-14.64h-9.6Zm-48.49,39.4c-5.02,0-9.09,4.07-9.09,9.09s4.07,9.09,9.09,9.09,9.09-4.07,9.09-9.09-4.07-9.09-9.09-9.09Zm60.61,18.18c5.02,0,9.09-4.07,9.09-9.09s-4.07-9.09-9.09-9.09-9.09,4.07-9.09,9.09,4.07,9.09,9.09,9.09Z" style="fill: #fff;"/>
      <text transform="translate(870.74 101.59)" style="fill: #56abca; font-family: GenSenRoundedTW-B, &apos;GenSenRounded TW&apos;; font-size: 25.04px;"><tspan x="0" y="0">FREE</tspan></text>
    </g>
  </g>
</svg>