<?xml version="1.0" encoding="UTF-8"?>
<svg id="_圖層_2" data-name="圖層 2" xmlns="http://www.w3.org/2000/svg" viewBox="0 0 618.39 503.21">
  <g id="Ebene_1" data-name="Ebene 1">
    <g>
      <polygon points="387.59 493.07 230.8 493.07 239.77 425.61 379.9 425.61 387.59 493.07" style="fill: #81858a;"/>
      <path d="M0,369.11v41.66c0,8.46,6.92,15.38,15.38,15.38H603.02c8.45,0,15.37-6.92,15.37-15.38v-41.66H0Z" style="fill: #d0d6db;"/>
      <path d="M618.39,15.38c0-8.46-6.92-15.38-15.37-15.38H15.38C6.92,0,0,6.92,0,15.38V369.11H618.39V15.38Z" style="fill: #3d3d3f;"/>
      <rect x="21.79" y="20.51" width="574.82" height="328.1" style="fill: #eceded;"/>
      <polygon points="230.8 493.07 387.59 493.07 415.17 499.59 203.22 499.74 230.8 493.07" style="fill: #d0d6db;"/>
      <polygon points="413.72 503.21 204.66 503.21 203.27 499.74 415.17 499.59 413.72 503.21" style="fill: #81858a;"/>
      <path d="M320.19,399.44c0,6.07-4.92,11-11,11s-11-4.92-11-11,4.92-11,11-11,11,4.93,11,11Z" style="fill: #3d3d3f;"/>
    </g>
  </g>
</svg>